<?xml version="1.0" encoding="utf-8"?>
<!-- Generator: Adobe Illustrator 17.0.0, SVG Export Plug-In . SVG Version: 6.00 Build 0)  -->
<!DOCTYPE svg PUBLIC "-//W3C//DTD SVG 1.1//EN" "http://www.w3.org/Graphics/SVG/1.1/DTD/svg11.dtd">
<svg version="1.1" id="Capa_1" xmlns="http://www.w3.org/2000/svg" xmlns:xlink="http://www.w3.org/1999/xlink" x="0px" y="0px"
	 width="281.768px" height="289.213px" viewBox="0 0 281.768 289.213" enable-background="new 0 0 281.768 289.213"
	 xml:space="preserve">
<g>
	<g>
		<path fill="#AE8741" d="M186.412,67.478c-2.678,0.573-4.042,2.364-3.945,4.978c0.061,1.656,0.676,2.51,2.404,2.935
			c0.97,0.239,1.709,1.417,2.551,2.172c-0.86,0.856-1.62,2.292-2.598,2.46c-3.061,0.524-2.611,3.045-2.897,4.88
			c-0.104,0.67,1.644,1.58,2.464,2.458c0.675,0.723,1.817,1.679,1.689,2.318c-0.166,0.828-1.32,1.942-2.169,2.058
			c-2.47,0.337-3.623,1.488-3.967,3.951c-0.222,1.595,0.134,2.446,1.509,3.279c0.823,0.498,1.787,1.674,1.744,2.495
			c-0.081,1.541-1.449,2.17-2.968,1.911c-2.501-0.427-3.346,1.118-4.1,3.068c-0.783,2.024,0.459,2.845,1.75,3.907
			c0.557,0.458,1.076,1.96,0.836,2.195c-0.651,0.639-1.744,1.222-2.615,1.16c-1.822-0.129-3.31-0.764-4.681,1.487
			c-1.292,2.121-1.433,3.442,0.316,5.187c0.532,0.531,0.804,2.287,0.492,2.514c-0.824,0.599-2.116,1.068-3.074,0.87
			c-2.81-0.58-4.381-0.115-5.41,2.49c-0.276,0.698,0.439,1.756,0.599,2.667c0.172,0.984,0.646,2.573,0.244,2.861
			c-0.79,0.566-2.43,0.926-3.126,0.469c-2.746-1.805-4.462,0.028-6.12,1.544c-0.558,0.51-0.385,1.917-0.387,2.914
			c-0.001,1.032,0.192,2.064,0.301,3.096c-1.143-0.064-2.726,0.327-3.347-0.274c-2.115-2.048-3.892-1.143-5.422,0.385
			c-0.787,0.786-1.011,2.211-1.304,3.393c-0.255,1.029-0.249,2.123-0.358,3.189c-1.086-0.34-2.348-0.438-3.221-1.072
			c-1.723-1.252-3.26-1.715-5.299-0.64c-1.604,0.846-2.224,1.7-1.721,3.55c0.203,0.748-0.254,2.01-0.853,2.517
			c-0.364,0.308-1.595-0.32-2.389-0.646c-0.354-0.145-0.606-0.567-0.876-0.886c-1.741-2.062-4.247-2.53-6.337-0.88
			c-0.616,0.486-0.529,1.794-0.916,2.657c-0.401,0.894-0.987,1.704-1.492,2.551c-0.728-0.517-1.68-0.885-2.142-1.579
			c-1.223-1.841-2.341-3.329-5.002-2.489c-1.531,0.483-2.449,0.935-2.723,2.701c-0.14,0.9-1.283,1.643-1.973,2.458
			c-0.86-0.761-2.348-1.436-2.466-2.298c-0.401-2.939-2.553-2.986-4.593-3.29c-2.001-0.298-2.374,1.301-3.087,2.666
			c-0.382,0.732-1.705,1.737-2.087,1.552c-0.9-0.435-1.923-1.42-2.119-2.346c-0.422-2-0.94-3.267-3.336-3.627
			c-1.97-0.296-3.099-0.158-4.043,1.726c-0.369,0.737-1.966,1.64-2.402,1.395c-0.829-0.465-1.647-1.674-1.712-2.625
			c-0.128-1.857-0.16-3.3-2.33-4.144c-1.982-0.771-3.247-0.596-4.602,1.038c-0.558,0.672-1.728,0.837-2.619,1.232
			c-0.29-1.057-1.11-2.333-0.777-3.131c1.312-3.15-1.419-3.659-2.921-4.931c-1.597-1.353-2.456,0.184-3.611,0.958
			c-0.766,0.513-1.893,0.489-2.859,0.705c-0.244-1.138-0.874-2.36-0.651-3.398c0.462-2.156-0.358-4.979-2.384-5.726
			c-0.723-0.266-1.79,0.463-2.716,0.666c-0.952,0.209-1.924,0.33-2.887,0.49c-0.128-1.07-0.627-2.265-0.315-3.186
			c1.075-3.17,0.663-5.052-2.163-6.657c-0.6-0.341-1.661,0.182-2.513,0.216c-0.993,0.04-1.99-0.02-2.985-0.037
			c0.108-1.053-0.073-2.258,0.382-3.13c1.123-2.148,0.73-5.61-1.254-6.948c-0.488-0.329-1.498,0.073-2.258,0.199
			c-1.138,0.189-2.229,1.181-3.308-0.383c-1.112-1.612-0.152-2.413,0.836-3.384c1.539-1.513,1.803-5.412,0.251-6.618
			c-0.63-0.49-1.9-0.08-2.84-0.272c-0.917-0.187-1.784-0.62-2.673-0.946c0.344-0.9,0.439-2.076,1.077-2.65
			c2.156-1.942,3.006-4.683,1.544-6.937c-0.381-0.587-1.76-0.478-2.636-0.806c-0.982-0.368-1.915-0.87-2.869-1.313
			c0.617-0.874,1.049-2.144,1.89-2.537c1.689-0.789,2.184-1.844,1.915-3.569c-0.272-1.746-0.827-2.933-2.933-3.083
			c-0.786-0.056-2.216-1.403-2.101-1.789c0.301-1.011,1.114-2.212,2.041-2.628c2.35-1.056,3.935-3.062,3.335-5.5
			c-0.196-0.795-1.546-1.272-2.29-1.977c-0.769-0.729-1.444-1.558-2.16-2.343c0.811-0.716,1.555-1.934,2.445-2.052
			c2.342-0.31,3.57-1.201,3.877-3.683c0.196-1.581-0.166-2.467-1.389-3.395c-0.9-0.683-1.483-1.784-2.208-2.698
			c1.177-0.608,2.397-1.795,3.522-1.711c2.733,0.205,3.128-1.632,3.861-3.412c0.715-1.739-0.423-2.511-1.466-3.554
			c-0.636-0.636-0.753-1.79-1.104-2.711c0.912-0.261,1.861-0.83,2.73-0.725c2.923,0.351,4.799-0.689,5.343-3.577
			c0.146-0.774-0.626-1.708-0.939-2.583c-0.35-0.976-1.123-2.102-0.885-2.923c0.463-1.599,1.946-1.462,3.341-1.06
			c2.898,0.835,4.345,0.281,5.495-2.501c0.334-0.808-0.24-1.998-0.419-3.01c-0.17-0.965-0.367-1.926-0.553-2.889
			c1.15-0.083,2.458-0.556,3.417-0.167c1.892,0.768,3.205,0.916,4.899-0.686c1.591-1.505,2.431-2.563,1.065-4.629
			c-0.364-0.551-0.124-2.233,0.249-2.385c0.77-0.313,1.921-0.175,2.728,0.191c1.582,0.718,2.655,2.216,4.867,0.611
			c2.019-1.464,3.008-2.627,2.125-5.109c-0.223-0.628,0.254-1.861,0.812-2.287c0.384-0.292,1.625,0.124,2.203,0.58
			c1.902,1.498,3.637,2.743,6.171,1.045c1.389-0.93,1.974-1.779,1.661-3.473c-0.146-0.788,0.452-1.714,0.713-2.578
			c0.9,0.343,2.115,0.431,2.639,1.078c1.443,1.783,2.754,3.097,5.341,2.063c1.68-0.672,2.665-1.396,2.665-3.386
			c0-0.822,0.739-2.024,1.47-2.382c1.26-0.616,1.76,0.399,2.212,1.591c0.598,1.576,1.835,2.489,3.747,2.238
			c1.809-0.238,3.142-0.676,3.521-2.845c0.154-0.881,1.361-1.579,2.089-2.36c0.802,0.811,2.091,1.51,2.31,2.456
			c0.517,2.231,1.865,2.743,3.821,2.786c1.758,0.039,3.31,0.12,3.792-2.244c0.158-0.777,1.483-1.877,2.201-1.825
			c0.735,0.053,1.878,1.279,1.974,2.094c0.3,2.532,1.181,3.885,3.997,4.086c1.611,0.115,2.378-0.09,3.231-1.462
			c0.546-0.879,1.824-1.303,2.773-1.931c0.563,1.016,1.644,2.061,1.589,3.043c-0.142,2.524,1.347,3.287,3.222,4.129
			c1.893,0.851,2.435-0.702,3.533-1.478c0.829-0.586,1.99-0.7,3.004-1.024c0.244,0.931,0.762,1.889,0.677,2.789
			c-0.197,2.096,0.077,3.581,2.237,4.729c2.065,1.098,3.215,0.419,4.607-0.927c0.452-0.437,1.63-0.717,2.064-0.435
			c0.626,0.407,0.979,1.357,1.246,2.145c0.139,0.409-0.043,1.031-0.277,1.446c-1.632,2.885,0.966,3.833,2.43,5.199
			c1.284,1.198,2.636,0.93,4.105-0.063c0.706-0.477,1.902-0.231,2.875-0.312c0.064,1.082,0.502,2.324,0.119,3.214
			c-1.044,2.428-0.177,5.785,2.169,6.738c0.602,0.245,1.432-0.083,2.158-0.129c1.127-0.071,2.255-0.126,3.383-0.188
			c-0.16,1.124,0.074,2.602-0.556,3.305c-1.722,1.923-0.935,3.259,0.186,5.067c1.106,1.784,2.14,2.225,4.097,1.56
			c0.739-0.251,2.11,0.183,2.65,0.789c0.823,0.924,0.048,1.544-0.934,2.227c-2.12,1.477-1.754,6.655,0.487,7.787
			c0.619,0.313,1.595-0.171,2.371-0.053c0.823,0.125,1.603,0.531,2.402,0.814c-0.387,0.683-0.639,1.509-1.184,2.024
			c-2.353,2.222-2.927,4.456-1.244,7.287c0.476,0.8,1.978,1.219,3.072,1.374C186.524,65.304,186.543,65.17,186.412,67.478z
			 M109.805,23.572c-12.093,0.169-22.906,3.822-32.55,11.038c-1.747,1.307-1.727,2.499-0.483,3.946
			c1.584,1.841,3.136,3.725,4.876,5.411c17.5,16.965,47.359,14.322,61.614-5.396c1.148-1.587,1.17-2.683-0.545-3.964
			C132.924,27.287,121.95,23.617,109.805,23.572z M110.617,131.117c11.568-0.186,22.305-3.794,31.914-10.87
			c1.901-1.4,1.984-2.711,0.557-4.353c-1.317-1.515-2.613-3.055-4.015-4.49c-17.187-17.584-47.602-15.368-62.165,4.485
			c-1.282,1.748-1.334,2.945,0.575,4.358C87.238,127.471,98.164,131.026,110.617,131.117z M163.795,74.839
			c-0.091-9.533-3.711-20.343-10.874-30.01c-1.424-1.922-2.656-1.834-4.367-0.545c-21.558,16.24-21.929,48.932-0.724,65.483
			c3.125,2.439,3.492,2.401,5.854-0.952C160.336,99.375,163.801,88.906,163.795,74.839z M56.194,77.615
			c0.089,11.94,3.813,22.809,11.1,32.501c1.204,1.601,2.343,1.715,3.753,0.503c1.776-1.526,3.605-3.006,5.254-4.663
			c17.23-17.317,14.782-47.444-4.968-61.76c-1.626-1.178-2.783-1.342-4.161,0.51C59.931,54.433,56.264,65.314,56.194,77.615z
			 M110.081,94.907c10.006,0.079,17.951-7.751,17.981-17.722c0.03-9.946-7.863-17.881-17.823-17.918
			c-9.754-0.036-17.717,7.81-17.895,17.633C92.165,86.746,100.127,94.828,110.081,94.907z"/>
	</g>
	<path fill="#AE8741" d="M113.355,141.399c0.9,0.58,2.45,1.074,2.541,1.762c0.126,0.944-0.654,2.228-1.411,3.014
		c-0.991,1.028-2.801,1.42-2.142,3.441c0.631,1.934,0.284,4.524,3.555,4.598c0.719,0.016,1.922,1.273,1.968,2.016
		c0.046,0.734-1.013,2.121-1.723,2.217c-2.946,0.398-3.393,2.442-3.846,4.757c-0.306,1.566-0.074,2.646,1.56,3.126
		c1.313,0.386,2.679,1.193,2.054,2.543c-0.463,0.999-2.086,2.093-3.153,2.054c-2.583-0.094-2.677,1.694-3.333,3.282
		c-0.646,1.563,0.036,2.383,1.151,3.401c0.755,0.688,0.966,1.972,1.42,2.99c-1.134,0.467-2.481,1.574-3.363,1.281
		c-2.809-0.932-3.354,1.335-4.358,2.735c-0.99,1.382-0.511,2.724,0.773,3.97c0.516,0.501,0.717,1.963,0.355,2.559
		c-0.378,0.624-1.86,1.254-2.418,0.981c-2.749-1.348-4.444-0.278-6.159,1.84c-1.112,1.373-1.734,2.438-0.883,4.231
		c0.418,0.881,0.029,2.146,0.006,3.237c-1.289-0.197-2.58-0.385-3.867-0.595c-0.966-0.158-2.364-0.828-2.808-0.427
		c-1.382,1.246-4.346,1.405-3.518,4.425c0.197,0.717,0.487,1.472,0.427,2.183c-0.135,1.588-2.051,2.03-3.666,0.937
		c-1.007-0.681-2.113-1.927-3.065-1.831c-2.025,0.205-4.054,0.959-5.914,1.841c-0.562,0.267-0.503,1.722-0.857,2.581
		c-0.435,1.057-1.005,2.059-1.516,3.085c-0.993-0.623-2.53-1.033-2.875-1.911c-0.951-2.418-2.712-2.09-4.554-1.936
		c-1.886,0.157-2.69,1.165-2.942,3.065c-0.102,0.766-1.262,1.925-1.957,1.937c-0.783,0.013-1.931-0.899-2.314-1.699
		c-1.294-2.703-3.717-4.331-6.517-3.717c-0.662,0.145-1.076,1.266-1.682,1.857c-0.838,0.818-1.75,1.559-2.631,2.334
		c-0.719-1.007-2.02-2.003-2.039-3.022c-0.042-2.253-1.141-3.046-3.021-3.625c-1.773-0.546-2.94-0.28-3.997,1.382
		c-0.441,0.694-2.1,1.427-2.528,1.138c-0.793-0.535-1.66-1.932-1.483-2.751c0.564-2.617-0.644-3.823-2.715-4.927
		c-1.399-0.746-2.329-0.644-3.612,0.253c-0.878,0.614-2.207,0.583-3.335,0.84c-0.141-1.208-0.747-2.613-0.336-3.589
		c1.273-3.021-1.502-3.964-2.642-5.662c-0.834-1.242-2.043-0.663-3.312-0.049c-0.941,0.455-2.305,0.035-3.481,0.005
		c0.115-1.178-0.143-2.596,0.428-3.48c0.954-1.477,1.234-2.692,0.156-4.102c-1.144-1.496-2.013-3.348-4.588-2.289
		c-0.74,0.304-2.671-0.298-2.694-0.592c-0.092-1.175-0.058-2.881,0.678-3.497c1.847-1.546,1.579-3.078,0.872-4.911
		c-0.899-2.332-1.552-4.815-5.019-4.159c-0.482,0.091-1.677-0.943-1.662-1.428c0.03-0.936,0.481-2.452,1.122-2.674
		c3.272-1.13,2.597-3.727,2.355-6.005c-0.076-0.712-1.343-1.329-2.113-1.928c-0.897-0.698-2.42-1.174-2.65-2.024
		c-0.452-1.663,1.073-2.252,2.452-2.88c0.963-0.439,2.392-1.542,2.326-2.225c-0.173-1.794,1.337-4.315-1.84-5.283
		c-0.882-0.269-1.4-1.727-2.086-2.639c0.959-0.663,1.972-1.95,2.869-1.874c2.843,0.24,3.235-1.748,3.923-3.584
		c0.663-1.769-0.556-2.45-1.741-3.381c-0.658-0.517-1.278-2.094-0.962-2.606c0.49-0.796,1.951-1.692,2.722-1.489
		c2.525,0.666,3.63-0.545,4.684-2.48c0.84-1.542,0.842-2.66-0.416-4.031c-0.631-0.688-0.568-2.014-0.818-3.051
		c1.035-0.235,2.124-0.799,3.096-0.643c2.941,0.472,5.617-0.659,6.802-3.471c0.321-0.76-0.129-1.85-0.242-2.787
		c-0.118-0.978-0.255-1.953-0.384-2.929c1.228-0.067,2.949-0.681,3.593-0.101c2.109,1.902,3.624,0.744,5.296-0.406
		c1.338-0.92,2.136-1.907,1.507-3.781c-0.283-0.844,0.183-2.707,0.721-2.889c0.928-0.313,2.74-0.049,3.193,0.631
		c1.781,2.672,3.74,1.31,5.739,0.681c2.089-0.657,3.91-1.42,3.619-4.243c-0.079-0.767,0.88-2.361,1.163-2.316
		c1.032,0.163,2.263,0.624,2.906,1.399c1.895,2.284,4.05,3.139,6.696,1.887c0.781-0.37,1.121-1.625,1.725-2.428
		c0.634-0.842,1.342-1.627,2.018-2.437c0.862,0.736,2.29,1.352,2.476,2.231c0.491,2.316,1.83,2.882,3.9,3.041
		c1.94,0.15,3.145-0.277,3.749-2.337c0.211-0.719,1.886-1.757,2.099-1.597c0.9,0.678,2.091,1.75,2.097,2.684
		c0.016,2.462,1.262,3.375,3.345,3.931c1.555,0.415,2.623,0.34,3.593-1.233c0.474-0.769,2.231-1.625,2.699-1.327
		c0.835,0.531,1.69,1.996,1.544,2.912c-0.368,2.309,0.375,3.432,2.411,4.494c1.718,0.897,2.718,0.797,4.185-0.39
		c0.762-0.616,2.244-0.34,3.401-0.468c0.088,1.074,0.534,2.284,0.187,3.191c-0.664,1.736-0.651,3.073,0.942,4.171
		c1.702,1.174,2.586,4.37,5.713,2.078c0.683-0.501,2.823-0.331,3.042,0.127c0.45,0.942,0.529,2.718-0.079,3.389
		c-2.007,2.213-0.504,3.835,0.473,5.6c0.945,1.708,2.424,1.219,3.959,1.053c0.882-0.095,2.467,0.373,2.631,0.92
		c0.27,0.898-0.224,2.123-0.645,3.103c-0.43,1.002-1.798,2.011-1.635,2.779c0.435,2.056,1.381,4.03,2.336,5.93
		c0.216,0.431,1.293,0.429,1.974,0.626C113.145,141.813,113.25,141.606,113.355,141.399z M29.528,157.57
		c-1.598,0.351-4.042,0.699-6.36,1.44c-4.187,1.34-4.481,2.054-3.295,6.233c3.635,12.809,11.389,22.044,23.646,27.456
		c1.664,0.735,2.637,0.578,3.71-0.906c5.189-7.175,5.969-14.836,2.069-22.683C45.487,161.44,38.809,157.983,29.528,157.57z
		 M90.744,152.514c1.8-0.488,4.702-1.257,7.593-2.067c1.888-0.529,2.36-1.867,1.878-3.624c-0.603-2.201-1.112-4.445-1.92-6.571
		c-4.062-10.69-11.31-18.395-21.777-23.085c-1.686-0.755-2.748-0.361-3.758,1.045c-5.141,7.158-6.016,14.798-2.111,22.684
		C74.461,148.591,81.124,152.008,90.744,152.514z M63.356,184.204c0.171,1.32,0.231,2.728,0.558,4.07
		c0.385,1.582,1.016,3.103,1.514,4.66c0.646,2.022,1.852,2.534,3.947,1.971c13.135-3.525,22.673-11.219,28.252-23.752
		c1.006-2.259,0.707-3.604-1.394-4.862c-7.105-4.253-14.382-4.66-21.695-0.822C67.098,169.376,63.93,176.006,63.356,184.204z
		 M59.819,142.436c-6.967-0.038-12.571,5.513-12.542,12.426c0.028,6.817,5.545,12.29,12.407,12.309
		c7.017,0.019,12.574-5.483,12.542-12.418C72.193,147.907,66.721,142.474,59.819,142.436z M56.625,124.927
		c-0.458-1.73-1.041-4.61-1.995-7.362c-1.191-3.433-1.833-3.62-5.284-2.634c-12.784,3.652-22.028,11.353-27.494,23.596
		c-1.027,2.3-0.714,3.611,1.296,4.88c7.143,4.51,14.581,5.156,22.097,1.276C52.672,140.849,56.037,134.316,56.625,124.927z"/>
	<g>
		<path fill="#7B171A" d="M173.254,72.74c59.805-0.01,108.515,48.445,108.514,107.947c-0.001,60.293-48.474,108.786-108.969,108.525
			c-59.367-0.256-107.946-48.416-107.689-108.748C65.363,120.88,113.712,72.946,173.254,72.74z M173.142,78.64
			c-55.208-0.655-101.183,44.834-102.318,100.021c-1.169,56.841,44.447,104.569,102.26,104.721
			c56.772,0.15,102.915-45.827,102.857-102.352C275.881,122.355,227.572,77.698,173.142,78.64z"/>
		<path fill="#7B171A" d="M173.142,78.64c54.43-0.942,102.739,43.716,102.799,102.391c0.058,56.525-46.085,102.501-102.857,102.352
			c-57.813-0.153-103.429-47.88-102.26-104.721C71.959,123.473,117.935,77.985,173.142,78.64z M173.482,79.657
			c-56.59-0.057-99.565,45.031-101.432,97.14c-2.152,60.068,45.893,105.175,100.449,105.46
			c57.099,0.299,101.808-45.391,102.28-100.453C275.262,125.228,229.31,79.485,173.482,79.657z"/>
		<path fill="#7B171A" d="M173.484,77.608c56.957-0.176,103.839,46.493,103.344,104.213
			c-0.481,56.176-46.094,102.79-104.348,102.485C116.822,284.015,67.805,237.996,70,176.713
			C71.905,123.55,115.749,77.55,173.484,77.608z M174.217,115.371c-0.273,0.009-0.547,0.018-0.82,0.027
			c-0.149,2.596-0.42,5.193-0.403,7.788c0.012,1.742,0.634,3.48,0.641,5.221c0.057,14.291,0.033,28.581,0.033,42.872
			c0,0.766,0,1.532,0,2.435c-3.809,0.665-5.889,3.069-6.83,6.766c-1.775,0-3.52-0.052-5.257,0.037
			c-0.434,0.022-0.846,0.498-1.268,0.765c0.436,0.324,0.857,0.899,1.312,0.928c1.734,0.11,3.48,0.045,5.231,0.045
			c0.77,3.055,2.313,5.348,5.232,6.272c1.373,0.434,1.619,1.126,1.607,2.402c-0.058,6.234-0.036,12.469-0.018,18.704
			c0.002,0.672,0.163,1.343,0.25,2.014c0.223-0.02,0.447-0.04,0.67-0.06c0-7.486,0-14.972,0-22.376
			c4.848-1.147,5.781-1.993,7.754-6.835c10.673,0,21.358,0,32.251,0c0,0.94-0.009,1.764,0.002,2.587
			c0.016,1.168,0.45,1.793,1.681,1.153c2.224-1.155,4.45-2.309,6.638-3.529c1.23-0.686,1.398-1.661,0.084-2.368
			c-1.961-1.055-4.02-1.929-6.04-2.875c-1.177-0.551-1.898-0.041-2.235,1.074c-0.178,0.588-0.169,1.232-0.258,1.955
			c-10.726,0-21.422,0-32.107,0c-1.881-4.648-3.063-5.72-7.663-6.819c0-0.703,0-1.459,0-2.216c0-14.571-0.01-29.142,0.016-43.713
			c0.003-1.45,0.394-2.91,0.31-4.348C174.877,120.634,174.501,118.005,174.217,115.371z M107.337,146.67
			c0.094-0.179,0.188-0.357,0.282-0.536c-1.004-1.679-17.722-10.426-19.695-9.851C94.64,139.876,100.988,143.273,107.337,146.67z
			 M135.331,116.056c0.204-0.133,0.409-0.265,0.613-0.398c-0.285-2.386-9.701-18.062-11.612-18.471
			C128.136,103.713,131.733,109.885,135.331,116.056z M174.175,84.409c-0.188,0.009-0.375,0.018-0.563,0.028
			c0,6.793,0,13.586,0,20.379c0.188,0,0.375,0.001,0.563,0.001C174.175,98.014,174.175,91.212,174.175,84.409z M208.908,113.377
			c2.134-0.606,10.616-15.912,9.952-17.811C215.543,101.503,212.225,107.44,208.908,113.377z M107.216,216.403
			c-0.191-0.31-0.383-0.621-0.574-0.931c-5.816,3.372-11.631,6.744-17.447,10.116c0.178,0.301,0.356,0.602,0.534,0.904
			C95.68,223.338,101.502,219.964,107.216,216.403z M237.8,139.941c0.197,0.34,0.393,0.68,0.589,1.019
			c5.841-3.371,11.682-6.742,17.523-10.113c-0.195-0.337-0.389-0.673-0.584-1.01C249.486,133.205,243.643,136.573,237.8,139.941z
			 M240.72,218.169c-0.031,0.198-0.061,0.396-0.092,0.595c5.477,2.92,10.953,5.84,16.43,8.76c0.134-0.202,0.269-0.404,0.403-0.606
			c-0.21-0.311-0.349-0.754-0.642-0.913c-4.88-2.657-9.773-5.293-14.69-7.881C241.768,217.934,241.195,218.145,240.72,218.169z
			 M124.722,263.334c2.225-0.556,10.327-15.228,9.502-17.001C131.047,252.015,127.97,257.522,124.722,263.334z M174.242,276.721
			c0-6.365,0-12.357,0-18.692C173.091,259.727,173.08,274.955,174.242,276.721z M222.585,263.432
			c-3.29-5.641-6.309-10.819-9.329-15.997C212.496,249.298,220.464,262.876,222.585,263.432z M98.887,180.362
			c0.003-0.169,0.006-0.337,0.009-0.506c-7.228,0-14.457,0-21.685,0c0.002,0.169,0.003,0.337,0.005,0.506
			C84.44,180.362,91.663,180.362,98.887,180.362z M269.276,180.311c0.005-0.171,0.01-0.341,0.016-0.511c-6.422,0-12.843,0-19.265,0
			c-0.002,0.17-0.003,0.341-0.005,0.511C256.44,180.311,262.858,180.311,269.276,180.311z"/>
		<path fill="#AE8741" stroke="#AE8741" stroke-width="2" stroke-miterlimit="10" d="M174.2,116.671
			c0.279,2.582,0.647,5.159,0.8,7.748c0.083,1.409-0.301,2.84-0.303,4.262c-0.025,14.282-0.015,28.564-0.015,42.846
			c0,0.741,0,1.483,0,2.172c4.508,1.078,5.667,2.128,7.511,6.684c10.473,0,20.957,0,31.47,0c0.087-0.709,0.078-1.34,0.253-1.917
			c0.331-1.093,1.037-1.594,2.191-1.053c1.98,0.927,3.997,1.784,5.92,2.818c1.288,0.693,1.124,1.649-0.082,2.321
			c-2.145,1.196-4.327,2.327-6.507,3.459c-1.207,0.627-1.632,0.015-1.648-1.13c-0.011-0.807-0.002-1.613-0.002-2.535
			c-10.677,0-21.151,0-31.612,0c-1.933,4.746-2.848,5.575-7.6,6.699c0,7.257,0,14.595,0,21.933c-0.219,0.02-0.438,0.039-0.657,0.059
			c-0.085-0.658-0.243-1.316-0.245-1.974c-0.018-6.111-0.04-12.222,0.017-18.333c0.012-1.251-0.229-1.929-1.575-2.354
			c-2.862-0.905-4.374-3.153-5.129-6.147c-1.716,0-3.427,0.064-5.128-0.044c-0.446-0.028-0.858-0.592-1.286-0.91
			c0.414-0.262,0.817-0.728,1.243-0.749c1.703-0.087,3.412-0.036,5.152-0.036c0.922-3.624,2.961-5.98,6.694-6.632
			c0-0.885,0-1.636,0-2.387c-0.001-14.007,0.023-28.015-0.033-42.022c-0.007-1.706-0.617-3.41-0.628-5.117
			c-0.017-2.544,0.249-5.089,0.395-7.634C173.665,116.688,173.932,116.68,174.2,116.671z M178.343,181.36
			c-0.006-2.153-1.661-3.826-3.727-3.766c-1.932,0.056-3.572,1.796-3.561,3.778c0.012,2.12,1.699,3.802,3.762,3.75
			C176.795,185.072,178.348,183.415,178.343,181.36z"/>
		<path fill="none" stroke="#AE8741" stroke-width="3" stroke-miterlimit="10" d="M108.646,147.35
			c-6.223-3.329-12.445-6.659-19.028-10.181c1.933-0.564,18.32,8.01,19.304,9.656C108.83,146.999,108.738,147.175,108.646,147.35z"
			/>
		<path fill="none" stroke="#AE8741" stroke-width="3" stroke-miterlimit="10" d="M136.085,117.343
			c-3.526-6.049-7.053-12.099-10.781-18.495c1.872,0.401,11.102,15.766,11.382,18.105
			C136.486,117.083,136.286,117.213,136.085,117.343z"/>
		<path fill="none" stroke="#AE8741" stroke-width="3" stroke-miterlimit="10" d="M174.159,86.323c0,6.668,0,13.335,0,20.003
			c-0.184,0-0.368-0.001-0.552-0.001c0-6.658,0-13.316,0-19.975C173.791,86.341,173.975,86.332,174.159,86.323z"/>
		<path fill="none" stroke="#AE8741" stroke-width="3" stroke-miterlimit="10" d="M208.204,114.717
			c3.252-5.819,6.503-11.639,9.755-17.458C218.609,99.121,210.296,114.123,208.204,114.717z"/>
		<path fill="none" stroke="#AE8741" stroke-width="3" stroke-miterlimit="10" d="M108.527,215.7
			c-5.6,3.49-11.307,6.797-17.14,9.889c-0.174-0.295-0.349-0.591-0.523-0.886c5.7-3.305,11.401-6.611,17.101-9.916
			C108.152,215.092,108.34,215.396,108.527,215.7z"/>
		<path fill="none" stroke="#AE8741" stroke-width="3" stroke-miterlimit="10" d="M236.523,140.754
			c5.727-3.301,11.454-6.602,17.181-9.903c0.191,0.33,0.382,0.66,0.572,0.99c-5.725,3.304-11.45,6.608-17.175,9.913
			C236.909,141.42,236.716,141.087,236.523,140.754z"/>
		<path fill="none" stroke="#AE8741" stroke-width="3" stroke-miterlimit="10" d="M239.385,217.432
			c0.465-0.024,1.027-0.231,1.381-0.044c4.82,2.537,9.615,5.12,14.399,7.724c0.287,0.156,0.423,0.59,0.629,0.895
			c-0.132,0.198-0.263,0.396-0.395,0.594c-5.368-2.862-10.736-5.724-16.104-8.586C239.325,217.82,239.355,217.626,239.385,217.432z"
			/>
		<path fill="none" stroke="#AE8741" stroke-width="3" stroke-miterlimit="10" d="M125.686,261.701
			c3.184-5.697,6.2-11.094,9.313-16.664C135.809,246.775,127.867,261.155,125.686,261.701z"/>
		<path fill="none" stroke="#AE8741" stroke-width="3" stroke-miterlimit="10" d="M174.225,274.822
			c-1.139-1.73-1.128-16.656,0-18.321C174.225,262.71,174.225,268.584,174.225,274.822z"/>
		<path fill="none" stroke="#AE8741" stroke-width="3" stroke-miterlimit="10" d="M221.61,261.797
			c-2.079-0.545-9.889-13.854-9.144-15.68C215.425,251.192,218.385,256.267,221.61,261.797z"/>
		<path fill="none" stroke="#AE8741" stroke-width="3" stroke-miterlimit="10" d="M100.364,180.374c-7.08,0-14.161,0-21.241,0
			c-0.002-0.165-0.003-0.331-0.005-0.496c7.085,0,14.17,0,21.255,0C100.37,180.043,100.367,180.209,100.364,180.374z"/>
		<path fill="none" stroke="#AE8741" stroke-width="3" stroke-miterlimit="10" d="M267.375,180.324c-6.291,0-12.582,0-18.873,0
			c0.002-0.167,0.003-0.334,0.005-0.501c6.294,0,12.589,0,18.883,0C267.385,179.989,267.38,180.157,267.375,180.324z"/>
		<path fill="#7B171A" d="M178.343,181.36c0.005,2.056-1.548,3.712-3.526,3.762c-2.063,0.052-3.75-1.63-3.762-3.75
			c-0.011-1.982,1.629-3.722,3.561-3.778C176.681,177.534,178.337,179.207,178.343,181.36z"/>
	</g>
</g>
</svg>
