<?xml version="1.0" encoding="utf-8"?>
<!-- Generator: Adobe Illustrator 17.0.0, SVG Export Plug-In . SVG Version: 6.00 Build 0)  -->
<!DOCTYPE svg PUBLIC "-//W3C//DTD SVG 1.1//EN" "http://www.w3.org/Graphics/SVG/1.1/DTD/svg11.dtd">
<svg version="1.1" id="Capa_1" xmlns="http://www.w3.org/2000/svg" xmlns:xlink="http://www.w3.org/1999/xlink" x="0px" y="0px"
	 width="71.586px" height="71.586px" viewBox="0 0 71.586 71.586" enable-background="new 0 0 71.586 71.586" xml:space="preserve">
<g>
	<g>
		<path fill="#AE8741" stroke="#7B171A" stroke-width="2" stroke-miterlimit="10" d="M35.882,5.531
			c16.736,0,30.351,13.615,30.351,30.351S52.617,66.233,35.882,66.233S5.531,52.617,5.531,35.882S19.146,5.531,35.882,5.531
			 M35.882,2.158c-18.623,0-33.723,15.099-33.723,33.723s15.1,33.723,33.723,33.723s33.723-15.099,33.723-33.723
			S54.505,2.158,35.882,2.158L35.882,2.158z"/>
		<path fill="#AE8741" stroke="#7B171A" stroke-width="2" stroke-miterlimit="10" d="M55.628,50.156
			c-0.073-0.927-0.887-1.619-1.813-1.547l-2.39,0.191c6.817-8.213,6.107-20.445-1.824-27.77c-8.196-7.57-21.023-7.059-28.594,1.139
			c-7.569,8.196-7.058,21.023,1.139,28.593c3.413,3.151,7.845,5.044,12.479,5.329c0.93,0.057,1.729-0.65,1.786-1.579
			c0.058-0.929-0.649-1.731-1.579-1.786c-3.859-0.237-7.553-1.814-10.397-4.441c-6.832-6.308-7.256-16.997-0.948-23.828
			c6.307-6.831,16.995-7.257,23.827-0.948c6.534,6.034,7.19,16.069,1.714,22.908l-0.001-2.228c0-0.93-0.755-1.686-1.685-1.685
			c-0.933,0-1.687,0.757-1.686,1.686v6.628c-0.001,0.47,0.198,0.918,0.542,1.238c0.345,0.319,0.809,0.48,1.278,0.443l6.605-0.526
			C55.009,51.897,55.703,51.084,55.628,50.156z"/>
	</g>
</g>
</svg>
