<svg xmlns="http://www.w3.org/2000/svg" width="71.586" height="71.586"><g fill="#AE8741" stroke="#7B171A" stroke-width="2" stroke-miterlimit="10"><path d="M35.882 5.531c16.736 0 30.351 13.615 30.351 30.351S52.617 66.233 35.882 66.233 5.531 52.617 5.531 35.882 19.146 5.531 35.882 5.531m0-3.373c-18.623 0-33.723 15.099-33.723 33.723s15.1 33.723 33.723 33.723 33.723-15.099 33.723-33.723-15.1-33.723-33.723-33.723z"/><path d="M55.628 50.156a1.688 1.688 0 0 0-1.813-1.547l-2.39.191c6.817-8.213 6.107-20.445-1.824-27.77-8.196-7.57-21.023-7.059-28.594 1.139-7.569 8.196-7.058 21.023 1.139 28.593a20.285 20.285 0 0 0 12.479 5.329 1.685 1.685 0 1 0 .207-3.365 16.896 16.896 0 0 1-10.397-4.441c-6.832-6.308-7.256-16.997-.948-23.828 6.307-6.831 16.995-7.257 23.827-.948 6.534 6.034 7.19 16.069 1.714 22.908l-.001-2.228a1.685 1.685 0 1 0-3.371.001v6.628a1.689 1.689 0 0 0 1.82 1.681l6.605-.526a1.69 1.69 0 0 0 1.547-1.817z"/></g></svg>