<svg xmlns="http://www.w3.org/2000/svg" width="281.768" height="289.213"><path fill="#AE8741" d="M186.412 67.478c-2.678.573-4.042 2.364-3.945 4.978.061 1.656.676 2.51 2.404 2.935.97.239 1.709 1.417 2.551 2.172-.86.856-1.62 2.292-2.598 2.46-3.061.524-2.611 3.045-2.897 4.88-.104.67 1.644 1.58 2.464 2.458.675.723 1.817 1.679 1.689 2.318-.166.828-1.32 1.942-2.169 2.058-2.47.337-3.623 1.488-3.967 3.951-.222 1.595.134 2.446 1.509 3.279.823.498 1.787 1.674 1.744 2.495-.081 1.541-1.449 2.17-2.968 1.911-2.501-.427-3.346 1.118-4.1 3.068-.783 2.024.459 2.845 1.75 3.907.557.458 1.076 1.96.836 2.195-.651.639-1.744 1.222-2.615 1.16-1.822-.129-3.31-.764-4.681 1.487-1.292 2.121-1.433 3.442.316 5.187.532.531.804 2.287.492 2.514-.824.599-2.116 1.068-3.074.87-2.81-.58-4.381-.115-5.41 2.49-.276.698.439 1.756.599 2.667.172.984.646 2.573.244 2.861-.79.566-2.43.926-3.126.469-2.746-1.805-4.462.028-6.12 1.544-.558.51-.385 1.917-.387 2.914-.001 1.032.192 2.064.301 3.096-1.143-.064-2.726.327-3.347-.274-2.115-2.048-3.892-1.143-5.422.385-.787.786-1.011 2.211-1.304 3.393-.255 1.029-.249 2.123-.358 3.189-1.086-.34-2.348-.438-3.221-1.072-1.723-1.252-3.26-1.715-5.299-.64-1.604.846-2.224 1.7-1.721 3.55.203.748-.254 2.01-.853 2.517-.364.308-1.595-.32-2.389-.646-.354-.145-.606-.567-.876-.886-1.741-2.062-4.247-2.53-6.337-.88-.616.486-.529 1.794-.916 2.657-.401.894-.987 1.704-1.492 2.551-.728-.517-1.68-.885-2.142-1.579-1.223-1.841-2.341-3.329-5.002-2.489-1.531.483-2.449.935-2.723 2.701-.14.9-1.283 1.643-1.973 2.458-.86-.761-2.348-1.436-2.466-2.298-.401-2.939-2.553-2.986-4.593-3.29-2.001-.298-2.374 1.301-3.087 2.666-.382.732-1.705 1.737-2.087 1.552-.9-.435-1.923-1.42-2.119-2.346-.422-2-.94-3.267-3.336-3.627-1.97-.296-3.099-.158-4.043 1.726-.369.737-1.966 1.64-2.402 1.395-.829-.465-1.647-1.674-1.712-2.625-.128-1.857-.16-3.3-2.33-4.144-1.982-.771-3.247-.596-4.602 1.038-.558.672-1.728.837-2.619 1.232-.29-1.057-1.11-2.333-.777-3.131 1.312-3.15-1.419-3.659-2.921-4.931-1.597-1.353-2.456.184-3.611.958-.766.513-1.893.489-2.859.705-.244-1.138-.874-2.36-.651-3.398.462-2.156-.358-4.979-2.384-5.726-.723-.266-1.79.463-2.716.666-.952.209-1.924.33-2.887.49-.128-1.07-.627-2.265-.315-3.186 1.075-3.17.663-5.052-2.163-6.657-.6-.341-1.661.182-2.513.216-.993.04-1.99-.02-2.985-.037.108-1.053-.073-2.258.382-3.13 1.123-2.148.73-5.61-1.254-6.948-.488-.329-1.498.073-2.258.199-1.138.189-2.229 1.181-3.308-.383-1.112-1.612-.152-2.413.836-3.384 1.539-1.513 1.803-5.412.251-6.618-.63-.49-1.9-.08-2.84-.272-.917-.187-1.784-.62-2.673-.946.344-.9.439-2.076 1.077-2.65 2.156-1.942 3.006-4.683 1.544-6.937-.381-.587-1.76-.478-2.636-.806-.982-.368-1.915-.87-2.869-1.313.617-.874 1.049-2.144 1.89-2.537 1.689-.789 2.184-1.844 1.915-3.569-.272-1.746-.827-2.933-2.933-3.083-.786-.056-2.216-1.403-2.101-1.789.301-1.011 1.114-2.212 2.041-2.628 2.35-1.056 3.935-3.062 3.335-5.5-.196-.795-1.546-1.272-2.29-1.977-.769-.729-1.444-1.558-2.16-2.343.811-.716 1.555-1.934 2.445-2.052 2.342-.31 3.57-1.201 3.877-3.683.196-1.581-.166-2.467-1.389-3.395-.9-.683-1.483-1.784-2.208-2.698 1.177-.608 2.397-1.795 3.522-1.711 2.733.205 3.128-1.632 3.861-3.412.715-1.739-.423-2.511-1.466-3.554-.636-.636-.753-1.79-1.104-2.711.912-.261 1.861-.83 2.73-.725 2.923.351 4.799-.689 5.343-3.577.146-.774-.626-1.708-.939-2.583-.35-.976-1.123-2.102-.885-2.923.463-1.599 1.946-1.462 3.341-1.06 2.898.835 4.345.281 5.495-2.501.334-.808-.24-1.998-.419-3.01-.17-.965-.367-1.926-.553-2.889 1.15-.083 2.458-.556 3.417-.167 1.892.768 3.205.916 4.899-.686 1.591-1.505 2.431-2.563 1.065-4.629-.364-.551-.124-2.233.249-2.385.77-.313 1.921-.175 2.728.191 1.582.718 2.655 2.216 4.867.611 2.019-1.464 3.008-2.627 2.125-5.109-.223-.628.254-1.861.812-2.287.384-.292 1.625.124 2.203.58 1.902 1.498 3.637 2.743 6.171 1.045 1.389-.93 1.974-1.779 1.661-3.473-.146-.788.452-1.714.713-2.578.9.343 2.115.431 2.639 1.078 1.443 1.783 2.754 3.097 5.341 2.063 1.68-.672 2.665-1.396 2.665-3.386 0-.822.739-2.024 1.47-2.382 1.26-.616 1.76.399 2.212 1.591.598 1.576 1.835 2.489 3.747 2.238 1.809-.238 3.142-.676 3.521-2.845.154-.881 1.361-1.579 2.089-2.36.802.811 2.091 1.51 2.31 2.456.517 2.231 1.865 2.743 3.821 2.786 1.758.039 3.31.12 3.792-2.244.158-.777 1.483-1.877 2.201-1.825.735.053 1.878 1.279 1.974 2.094.3 2.532 1.181 3.885 3.997 4.086 1.611.115 2.378-.09 3.231-1.462.546-.879 1.824-1.303 2.773-1.931.563 1.016 1.644 2.061 1.589 3.043-.142 2.524 1.347 3.287 3.222 4.129 1.893.851 2.435-.702 3.533-1.478.829-.586 1.99-.7 3.004-1.024.244.931.762 1.889.677 2.789-.197 2.096.077 3.581 2.237 4.729 2.065 1.098 3.215.419 4.607-.927.452-.437 1.63-.717 2.064-.435.626.407.979 1.357 1.246 2.145.139.409-.043 1.031-.277 1.446-1.632 2.885.966 3.833 2.43 5.199 1.284 1.198 2.636.93 4.105-.063.706-.477 1.902-.231 2.875-.312.064 1.082.502 2.324.119 3.214-1.044 2.428-.177 5.785 2.169 6.738.602.245 1.432-.083 2.158-.129 1.127-.071 2.255-.126 3.383-.188-.16 1.124.074 2.602-.556 3.305-1.722 1.923-.935 3.259.186 5.067 1.106 1.784 2.14 2.225 4.097 1.56.739-.251 2.11.183 2.65.789.823.924.048 1.544-.934 2.227-2.12 1.477-1.754 6.655.487 7.787.619.313 1.595-.171 2.371-.053.823.125 1.603.531 2.402.814-.387.683-.639 1.509-1.184 2.024-2.353 2.222-2.927 4.456-1.244 7.287.476.8 1.978 1.219 3.072 1.374 2.042.29 2.061.156 1.93 2.464zm-76.607-43.906c-12.093.169-22.906 3.822-32.55 11.038-1.747 1.307-1.727 2.499-.483 3.946 1.584 1.841 3.136 3.725 4.876 5.411 17.5 16.965 47.359 14.322 61.614-5.396 1.148-1.587 1.17-2.683-.545-3.964-9.793-7.32-20.767-10.99-32.912-11.035zm.812 107.545c11.568-.186 22.305-3.794 31.914-10.87 1.901-1.4 1.984-2.711.557-4.353-1.317-1.515-2.613-3.055-4.015-4.49-17.187-17.584-47.602-15.368-62.165 4.485-1.282 1.748-1.334 2.945.575 4.358 9.755 7.224 20.681 10.779 33.134 10.87zm53.178-56.278c-.091-9.533-3.711-20.343-10.874-30.01-1.424-1.922-2.656-1.834-4.367-.545-21.558 16.24-21.929 48.932-.724 65.483 3.125 2.439 3.492 2.401 5.854-.952 6.652-9.44 10.117-19.909 10.111-33.976zM56.194 77.615c.089 11.94 3.813 22.809 11.1 32.501 1.204 1.601 2.343 1.715 3.753.503 1.776-1.526 3.605-3.006 5.254-4.663 17.23-17.317 14.782-47.444-4.968-61.76-1.626-1.178-2.783-1.342-4.161.51-7.241 9.727-10.908 20.608-10.978 32.909zm53.887 17.292c10.006.079 17.951-7.751 17.981-17.722.03-9.946-7.863-17.881-17.823-17.918-9.754-.036-17.717 7.81-17.895 17.633-.179 9.846 7.783 17.928 17.737 18.007z"/><path fill="#AE8741" d="M113.355 141.399c.9.58 2.45 1.074 2.541 1.762.126.944-.654 2.228-1.411 3.014-.991 1.028-2.801 1.42-2.142 3.441.631 1.934.284 4.524 3.555 4.598.719.016 1.922 1.273 1.968 2.016.046.734-1.013 2.121-1.723 2.217-2.946.398-3.393 2.442-3.846 4.757-.306 1.566-.074 2.646 1.56 3.126 1.313.386 2.679 1.193 2.054 2.543-.463.999-2.086 2.093-3.153 2.054-2.583-.094-2.677 1.694-3.333 3.282-.646 1.563.036 2.383 1.151 3.401.755.688.966 1.972 1.42 2.99-1.134.467-2.481 1.574-3.363 1.281-2.809-.932-3.354 1.335-4.358 2.735-.99 1.382-.511 2.724.773 3.97.516.501.717 1.963.355 2.559-.378.624-1.86 1.254-2.418.981-2.749-1.348-4.444-.278-6.159 1.84-1.112 1.373-1.734 2.438-.883 4.231.418.881.029 2.146.006 3.237-1.289-.197-2.58-.385-3.867-.595-.966-.158-2.364-.828-2.808-.427-1.382 1.246-4.346 1.405-3.518 4.425.197.717.487 1.472.427 2.183-.135 1.588-2.051 2.03-3.666.937-1.007-.681-2.113-1.927-3.065-1.831-2.025.205-4.054.959-5.914 1.841-.562.267-.503 1.722-.857 2.581-.435 1.057-1.005 2.059-1.516 3.085-.993-.623-2.53-1.033-2.875-1.911-.951-2.418-2.712-2.09-4.554-1.936-1.886.157-2.69 1.165-2.942 3.065-.102.766-1.262 1.925-1.957 1.937-.783.013-1.931-.899-2.314-1.699-1.294-2.703-3.717-4.331-6.517-3.717-.662.145-1.076 1.266-1.682 1.857-.838.818-1.75 1.559-2.631 2.334-.719-1.007-2.02-2.003-2.039-3.022-.042-2.253-1.141-3.046-3.021-3.625-1.773-.546-2.94-.28-3.997 1.382-.441.694-2.1 1.427-2.528 1.138-.793-.535-1.66-1.932-1.483-2.751.564-2.617-.644-3.823-2.715-4.927-1.399-.746-2.329-.644-3.612.253-.878.614-2.207.583-3.335.84-.141-1.208-.747-2.613-.336-3.589 1.273-3.021-1.502-3.964-2.642-5.662-.834-1.242-2.043-.663-3.312-.049-.941.455-2.305.035-3.481.005.115-1.178-.143-2.596.428-3.48.954-1.477 1.234-2.692.156-4.102-1.144-1.496-2.013-3.348-4.588-2.289-.74.304-2.671-.298-2.694-.592-.092-1.175-.058-2.881.678-3.497 1.847-1.546 1.579-3.078.872-4.911-.899-2.332-1.552-4.815-5.019-4.159-.482.091-1.677-.943-1.662-1.428.03-.936.481-2.452 1.122-2.674 3.272-1.13 2.597-3.727 2.355-6.005-.076-.712-1.343-1.329-2.113-1.928-.897-.698-2.42-1.174-2.65-2.024-.452-1.663 1.073-2.252 2.452-2.88.963-.439 2.392-1.542 2.326-2.225-.173-1.794 1.337-4.315-1.84-5.283-.882-.269-1.4-1.727-2.086-2.639.959-.663 1.972-1.95 2.869-1.874 2.843.24 3.235-1.748 3.923-3.584.663-1.769-.556-2.45-1.741-3.381-.658-.517-1.278-2.094-.962-2.606.49-.796 1.951-1.692 2.722-1.489 2.525.666 3.63-.545 4.684-2.48.84-1.542.842-2.66-.416-4.031-.631-.688-.568-2.014-.818-3.051 1.035-.235 2.124-.799 3.096-.643 2.941.472 5.617-.659 6.802-3.471.321-.76-.129-1.85-.242-2.787-.118-.978-.255-1.953-.384-2.929 1.228-.067 2.949-.681 3.593-.101 2.109 1.902 3.624.744 5.296-.406 1.338-.92 2.136-1.907 1.507-3.781-.283-.844.183-2.707.721-2.889.928-.313 2.74-.049 3.193.631 1.781 2.672 3.74 1.31 5.739.681 2.089-.657 3.91-1.42 3.619-4.243-.079-.767.88-2.361 1.163-2.316 1.032.163 2.263.624 2.906 1.399 1.895 2.284 4.05 3.139 6.696 1.887.781-.37 1.121-1.625 1.725-2.428.634-.842 1.342-1.627 2.018-2.437.862.736 2.29 1.352 2.476 2.231.491 2.316 1.83 2.882 3.9 3.041 1.94.15 3.145-.277 3.749-2.337.211-.719 1.886-1.757 2.099-1.597.9.678 2.091 1.75 2.097 2.684.016 2.462 1.262 3.375 3.345 3.931 1.555.415 2.623.34 3.593-1.233.474-.769 2.231-1.625 2.699-1.327.835.531 1.69 1.996 1.544 2.912-.368 2.309.375 3.432 2.411 4.494 1.718.897 2.718.797 4.185-.39.762-.616 2.244-.34 3.401-.468.088 1.074.534 2.284.187 3.191-.664 1.736-.651 3.073.942 4.171 1.702 1.174 2.586 4.37 5.713 2.078.683-.501 2.823-.331 3.042.127.45.942.529 2.718-.079 3.389-2.007 2.213-.504 3.835.473 5.6.945 1.708 2.424 1.219 3.959 1.053.882-.095 2.467.373 2.631.92.27.898-.224 2.123-.645 3.103-.43 1.002-1.798 2.011-1.635 2.779.435 2.056 1.381 4.03 2.336 5.93.216.431 1.293.429 1.974.626.11-.206.215-.413.32-.62zM29.528 157.57c-1.598.351-4.042.699-6.36 1.44-4.187 1.34-4.481 2.054-3.295 6.233 3.635 12.809 11.389 22.044 23.646 27.456 1.664.735 2.637.578 3.71-.906 5.189-7.175 5.969-14.836 2.069-22.683-3.811-7.67-10.489-11.127-19.77-11.54zm61.216-5.056c1.8-.488 4.702-1.257 7.593-2.067 1.888-.529 2.36-1.867 1.878-3.624-.603-2.201-1.112-4.445-1.92-6.571-4.062-10.69-11.31-18.395-21.777-23.085-1.686-.755-2.748-.361-3.758 1.045-5.141 7.158-6.016 14.798-2.111 22.684 3.812 7.695 10.475 11.112 20.095 11.618zm-27.388 31.69c.171 1.32.231 2.728.558 4.07.385 1.582 1.016 3.103 1.514 4.66.646 2.022 1.852 2.534 3.947 1.971 13.135-3.525 22.673-11.219 28.252-23.752 1.006-2.259.707-3.604-1.394-4.862-7.105-4.253-14.382-4.66-21.695-.822-7.44 3.907-10.608 10.537-11.182 18.735zm-3.537-41.768c-6.967-.038-12.571 5.513-12.542 12.426.028 6.817 5.545 12.29 12.407 12.309 7.017.019 12.574-5.483 12.542-12.418-.033-6.846-5.505-12.279-12.407-12.317zm-3.194-17.509c-.458-1.73-1.041-4.61-1.995-7.362-1.191-3.433-1.833-3.62-5.284-2.634-12.784 3.652-22.028 11.353-27.494 23.596-1.027 2.3-.714 3.611 1.296 4.88 7.143 4.51 14.581 5.156 22.097 1.276 7.427-3.834 10.792-10.367 11.38-19.756z"/><path fill="#7B171A" d="M173.254 72.74c59.805-.01 108.515 48.445 108.514 107.947-.001 60.293-48.474 108.786-108.969 108.525-59.367-.256-107.946-48.416-107.689-108.748.253-59.584 48.602-107.518 108.144-107.724zm-.112 5.9c-55.208-.655-101.183 44.834-102.318 100.021-1.169 56.841 44.447 104.569 102.26 104.721 56.772.15 102.915-45.827 102.857-102.352-.06-58.675-48.369-103.332-102.799-102.39z"/><path fill="#7B171A" d="M173.142 78.64c54.43-.942 102.739 43.716 102.799 102.391.058 56.525-46.085 102.501-102.857 102.352-57.813-.153-103.429-47.88-102.26-104.721 1.135-55.189 47.111-100.677 102.318-100.022zm.34 1.017c-56.59-.057-99.565 45.031-101.432 97.14-2.152 60.068 45.893 105.175 100.449 105.46 57.099.299 101.808-45.391 102.28-100.453.483-56.576-45.469-102.319-101.297-102.147z"/><path fill="#7B171A" d="M173.484 77.608c56.957-.176 103.839 46.493 103.344 104.213-.481 56.176-46.094 102.79-104.348 102.485-55.658-.291-104.675-46.31-102.48-107.593 1.905-53.163 45.749-99.163 103.484-99.105zm.733 37.763l-.82.027c-.149 2.596-.42 5.193-.403 7.788.012 1.742.634 3.48.641 5.221.057 14.291.033 28.581.033 42.872v2.435c-3.809.665-5.889 3.069-6.83 6.766-1.775 0-3.52-.052-5.257.037-.434.022-.846.498-1.268.765.436.324.857.899 1.312.928 1.734.11 3.48.045 5.231.045.77 3.055 2.313 5.348 5.232 6.272 1.373.434 1.619 1.126 1.607 2.402-.058 6.234-.036 12.469-.018 18.704.002.672.163 1.343.25 2.014l.67-.06v-22.376c4.848-1.147 5.781-1.993 7.754-6.835h32.251c0 .94-.009 1.764.002 2.587.016 1.168.45 1.793 1.681 1.153 2.224-1.155 4.45-2.309 6.638-3.529 1.23-.686 1.398-1.661.084-2.368-1.961-1.055-4.02-1.929-6.04-2.875-1.177-.551-1.898-.041-2.235 1.074-.178.588-.169 1.232-.258 1.955h-32.107c-1.881-4.648-3.063-5.72-7.663-6.819v-2.216c0-14.571-.01-29.142.016-43.713.003-1.45.394-2.91.31-4.348-.153-2.643-.529-5.272-.813-7.906zm-66.88 31.299l.282-.536c-1.004-1.679-17.722-10.426-19.695-9.851l19.413 10.387zm27.994-30.614l.613-.398c-.285-2.386-9.701-18.062-11.612-18.471l10.999 18.869zm38.844-31.647l-.563.028v20.379l.563.001V84.409zm34.733 28.968c2.134-.606 10.616-15.912 9.952-17.811l-9.952 17.811zM107.216 216.403l-.574-.931-17.447 10.116.534.904a288.558 288.558 0 0 0 17.487-10.089zM237.8 139.941l.589 1.019 17.523-10.113-.584-1.01-17.528 10.104zm2.92 78.228l-.092.595 16.43 8.76.403-.606c-.21-.311-.349-.754-.642-.913-4.88-2.657-9.773-5.293-14.69-7.881-.361-.19-.934.021-1.409.045zm-115.998 45.165c2.225-.556 10.327-15.228 9.502-17.001-3.177 5.682-6.254 11.189-9.502 17.001zm49.52 13.387v-18.692c-1.151 1.698-1.162 16.926 0 18.692zm48.343-13.289l-9.329-15.997c-.76 1.863 7.208 15.441 9.329 15.997zm-123.698-83.07l.009-.506H77.211l.005.506h21.671zm170.389-.051l.016-.511h-19.265l-.005.511h19.254z"/><path fill="#AE8741" stroke="#AE8741" stroke-width="2" stroke-miterlimit="10" d="M174.2 116.671c.279 2.582.647 5.159.8 7.748.083 1.409-.301 2.84-.303 4.262-.025 14.282-.015 28.564-.015 42.846v2.172c4.508 1.078 5.667 2.128 7.511 6.684h31.47c.087-.709.078-1.34.253-1.917.331-1.093 1.037-1.594 2.191-1.053 1.98.927 3.997 1.784 5.92 2.818 1.288.693 1.124 1.649-.082 2.321-2.145 1.196-4.327 2.327-6.507 3.459-1.207.627-1.632.015-1.648-1.13-.011-.807-.002-1.613-.002-2.535h-31.612c-1.933 4.746-2.848 5.575-7.6 6.699v21.933l-.657.059c-.085-.658-.243-1.316-.245-1.974-.018-6.111-.04-12.222.017-18.333.012-1.251-.229-1.929-1.575-2.354-2.862-.905-4.374-3.153-5.129-6.147-1.716 0-3.427.064-5.128-.044-.446-.028-.858-.592-1.286-.91.414-.262.817-.728 1.243-.749 1.703-.087 3.412-.036 5.152-.036.922-3.624 2.961-5.98 6.694-6.632v-2.387c-.001-14.007.023-28.015-.033-42.022-.007-1.706-.617-3.41-.628-5.117-.017-2.544.249-5.089.395-7.634l.804-.027zm4.143 64.689c-.006-2.153-1.661-3.826-3.727-3.766-1.932.056-3.572 1.796-3.561 3.778.012 2.12 1.699 3.802 3.762 3.75 1.978-.05 3.531-1.707 3.526-3.762z"/><path fill="none" stroke="#AE8741" stroke-width="3" stroke-miterlimit="10" d="M108.646 147.35l-19.028-10.181c1.933-.564 18.32 8.01 19.304 9.656l-.276.525zm27.439-30.007l-10.781-18.495c1.872.401 11.102 15.766 11.382 18.105l-.601.39zm38.074-31.02v20.003l-.552-.001V86.35l.552-.027zm34.045 28.394l9.755-17.458c.65 1.862-7.663 16.864-9.755 17.458zM108.527 215.7a283.11 283.11 0 0 1-17.14 9.889l-.523-.886 17.101-9.916.562.913zm127.996-74.946l17.181-9.903.572.99-17.175 9.913-.578-1zm2.862 76.678c.465-.024 1.027-.231 1.381-.044 4.82 2.537 9.615 5.12 14.399 7.724.287.156.423.59.629.895l-.395.594-16.104-8.586.09-.583zm-113.699 44.269l9.313-16.664c.81 1.738-7.132 16.118-9.313 16.664zm48.539 13.121c-1.139-1.73-1.128-16.656 0-18.321v18.321zm47.385-13.025c-2.079-.545-9.889-13.854-9.144-15.68l9.144 15.68zm-121.246-81.423H79.123l-.005-.496h21.255l-.009.496zm167.011-.05h-18.873l.005-.501h18.883l-.015.501z"/><path fill="#7B171A" d="M178.343 181.36c.005 2.056-1.548 3.712-3.526 3.762-2.063.052-3.75-1.63-3.762-3.75-.011-1.982 1.629-3.722 3.561-3.778 2.065-.06 3.721 1.613 3.727 3.766z"/></svg>